<?xml version="1.0" encoding="UTF-8" standalone="no"?><svg xmlns="http://www.w3.org/2000/svg" xmlns:xlink="http://www.w3.org/1999/xlink" contentStyleType="text/css" height="568px" preserveAspectRatio="none" style="width:1097px;height:568px;background:#FFFFFF;" version="1.1" viewBox="0 0 1097 568" width="1097px" zoomAndPan="magnify"><defs/><g><rect fill="#555555" height="6" rx="2.5" ry="2.5" style="stroke:#555555;stroke-width:1.0;" width="1075" x="11" y="11"/><rect fill="#F1F1F1" height="33.9688" rx="12.5" ry="12.5" style="stroke:#181818;stroke-width:0.5;" width="142" x="23" y="214.4219"/><text fill="#000000" font-family="sans-serif" font-size="12" lengthAdjust="spacing" textLength="122" x="33" y="235.5605">Process with article</text><rect fill="#F1F1F1" height="33.9688" rx="12.5" ry="12.5" style="stroke:#181818;stroke-width:0.5;" width="32" x="175" y="214.4219"/><text fill="#000000" font-family="sans-serif" font-size="12" lengthAdjust="spacing" textLength="12" x="185" y="235.5605">...</text><path d="M379,218.8398 L379,227.4063 L359,231.4063 L379,235.4063 L379,243.9727 A0,0 0 0 0 379,243.9727 L514,243.9727 A0,0 0 0 0 514,243.9727 L514,228.8398 L504,218.8398 L379,218.8398 A0,0 0 0 0 379,218.8398 " fill="#FEFFDD" style="stroke:#181818;stroke-width:0.5;"/><path d="M504,218.8398 L504,228.8398 L514,228.8398 L504,218.8398 " fill="#FEFFDD" style="stroke:#181818;stroke-width:0.5;"/><text fill="#000000" font-family="sans-serif" font-size="13" lengthAdjust="spacing" textLength="114" x="385" y="235.9067">Same steps &gt;&gt;&gt;</text><rect fill="#F1F1F1" height="33.9688" rx="12.5" ry="12.5" style="stroke:#181818;stroke-width:0.5;" width="142" x="217" y="214.4219"/><text fill="#000000" font-family="sans-serif" font-size="12" lengthAdjust="spacing" textLength="122" x="227" y="235.5605">Process with article</text><rect fill="#F1F1F1" height="33.9688" rx="12.5" ry="12.5" style="stroke:#181818;stroke-width:0.5;" width="159" x="729.5" y="37"/><text fill="#000000" font-family="sans-serif" font-size="12" lengthAdjust="spacing" textLength="139" x="739.5" y="58.1387">Inspect article's folder</text><rect fill="#555555" height="6" rx="2.5" ry="2.5" style="stroke:#555555;stroke-width:1.0;" width="532" x="542" y="90.9688"/><rect fill="#F1F1F1" height="33.9688" rx="12.5" ry="12.5" style="stroke:#181818;stroke-width:0.5;" width="289" x="558.5" y="116.9688"/><text fill="#000000" font-family="sans-serif" font-size="12" lengthAdjust="spacing" textLength="269" x="568.5" y="138.1074">Write .pandoc file with additional metadata</text><rect fill="#F1F1F1" height="33.9688" rx="12.5" ry="12.5" style="stroke:#181818;stroke-width:0.5;" width="237" x="584.5" y="170.9375"/><text fill="#000000" font-family="sans-serif" font-size="12" lengthAdjust="spacing" textLength="217" x="594.5" y="192.0762">Render .pandoc content into HTML</text><rect fill="#F1F1F1" height="33.9688" rx="12.5" ry="12.5" style="stroke:#181818;stroke-width:0.5;" width="294" x="556" y="239.9063"/><text fill="#000000" font-family="sans-serif" font-size="12" lengthAdjust="spacing" textLength="274" x="566" y="261.0449">Embed HTML content into theme's template</text><rect fill="#F1F1F1" height="33.9688" rx="12.5" ry="12.5" style="stroke:#181818;stroke-width:0.5;" width="141" x="632.5" y="293.875"/><text fill="#000000" font-family="sans-serif" font-size="12" lengthAdjust="spacing" textLength="121" x="642.5" y="315.0137">Article's HTML page</text><rect fill="#F1F1F1" height="33.9688" rx="12.5" ry="12.5" style="stroke:#181818;stroke-width:0.5;" width="170" x="885" y="170.9375"/><text fill="#000000" font-family="sans-serif" font-size="12" lengthAdjust="spacing" textLength="150" x="895" y="192.0762">Find .plantuml diagrams</text><rect fill="#F1F1F1" height="33.9688" rx="12.5" ry="12.5" style="stroke:#181818;stroke-width:0.5;" width="184" x="878" y="239.9063"/><text fill="#000000" font-family="sans-serif" font-size="12" lengthAdjust="spacing" textLength="164" x="888" y="261.0449">Render diagrams into .svg</text><polygon fill="#F1F1F1" points="809,337.8438,821,349.8438,809,361.8438,797,349.8438,809,337.8438" style="stroke:#181818;stroke-width:0.5;"/><rect fill="#F1F1F1" height="33.9688" rx="12.5" ry="12.5" style="stroke:#181818;stroke-width:0.5;" width="229" x="694.5" y="381.8438"/><text fill="#000000" font-family="sans-serif" font-size="12" lengthAdjust="spacing" textLength="209" x="704.5" y="402.9824">Put into article's renderred folder</text><polygon fill="#F1F1F1" points="531.5,425.8125,543.5,437.8125,531.5,449.8125,519.5,437.8125,531.5,425.8125" style="stroke:#181818;stroke-width:0.5;"/><rect fill="#F1F1F1" height="33.9688" rx="12.5" ry="12.5" style="stroke:#181818;stroke-width:0.5;" width="116" x="473.5" y="469.8125"/><text fill="#000000" font-family="sans-serif" font-size="12" lengthAdjust="spacing" textLength="96" x="483.5" y="490.9512">Generate index</text><rect fill="#F1F1F1" height="33.9688" rx="12.5" ry="12.5" style="stroke:#181818;stroke-width:0.5;" width="135" x="464" y="523.7813"/><text fill="#000000" font-family="sans-serif" font-size="12" lengthAdjust="spacing" textLength="115" x="474" y="544.9199">Create index page</text><line style="stroke:#181818;stroke-width:1.0;" x1="703" x2="703" y1="150.9375" y2="170.9375"/><polygon fill="#181818" points="699,160.9375,703,170.9375,707,160.9375,703,164.9375" style="stroke:#181818;stroke-width:1.0;"/><line style="stroke:#181818;stroke-width:1.0;" x1="703" x2="703" y1="204.9063" y2="239.9063"/><polygon fill="#181818" points="699,229.9063,703,239.9063,707,229.9063,703,233.9063" style="stroke:#181818;stroke-width:1.0;"/><line style="stroke:#181818;stroke-width:1.0;" x1="703" x2="703" y1="273.875" y2="293.875"/><polygon fill="#181818" points="699,283.875,703,293.875,707,283.875,703,287.875" style="stroke:#181818;stroke-width:1.0;"/><line style="stroke:#181818;stroke-width:1.0;" x1="970" x2="970" y1="204.9063" y2="239.9063"/><polygon fill="#181818" points="966,229.9063,970,239.9063,974,229.9063,970,233.9063" style="stroke:#181818;stroke-width:1.0;"/><line style="stroke:#181818;stroke-width:1.0;" x1="703" x2="703" y1="96.9688" y2="116.9688"/><polygon fill="#181818" points="699,106.9688,703,116.9688,707,106.9688,703,110.9688" style="stroke:#181818;stroke-width:1.0;"/><line style="stroke:#181818;stroke-width:1.0;" x1="970" x2="970" y1="96.9688" y2="170.9375"/><polygon fill="#181818" points="966,160.9375,970,170.9375,974,160.9375,970,164.9375" style="stroke:#181818;stroke-width:1.0;"/><line style="stroke:#181818;stroke-width:1.0;" x1="703" x2="703" y1="327.8438" y2="349.8438"/><line style="stroke:#181818;stroke-width:1.0;" x1="703" x2="797" y1="349.8438" y2="349.8438"/><polygon fill="#181818" points="787,345.8438,797,349.8438,787,353.8438,791,349.8438" style="stroke:#181818;stroke-width:1.0;"/><line style="stroke:#181818;stroke-width:1.0;" x1="970" x2="970" y1="273.875" y2="349.8438"/><line style="stroke:#181818;stroke-width:1.0;" x1="970" x2="821" y1="349.8438" y2="349.8438"/><polygon fill="#181818" points="831,345.8438,821,349.8438,831,353.8438,827,349.8438" style="stroke:#181818;stroke-width:1.0;"/><line style="stroke:#181818;stroke-width:1.0;" x1="809" x2="809" y1="70.9688" y2="90.9688"/><polygon fill="#181818" points="805,80.9688,809,90.9688,813,80.9688,809,84.9688" style="stroke:#181818;stroke-width:1.0;"/><line style="stroke:#181818;stroke-width:1.0;" x1="809" x2="809" y1="361.8438" y2="381.8438"/><polygon fill="#181818" points="805,371.8438,809,381.8438,813,371.8438,809,375.8438" style="stroke:#181818;stroke-width:1.0;"/><line style="stroke:#181818;stroke-width:1.0;" x1="94" x2="94" y1="17" y2="214.4219"/><polygon fill="#181818" points="90,204.4219,94,214.4219,98,204.4219,94,208.4219" style="stroke:#181818;stroke-width:1.0;"/><line style="stroke:#181818;stroke-width:1.0;" x1="191" x2="191" y1="17" y2="214.4219"/><polygon fill="#181818" points="187,204.4219,191,214.4219,195,204.4219,191,208.4219" style="stroke:#181818;stroke-width:1.0;"/><line style="stroke:#181818;stroke-width:1.0;" x1="288" x2="288" y1="17" y2="214.4219"/><polygon fill="#181818" points="284,204.4219,288,214.4219,292,204.4219,288,208.4219" style="stroke:#181818;stroke-width:1.0;"/><line style="stroke:#181818;stroke-width:1.0;" x1="809" x2="809" y1="17" y2="37"/><polygon fill="#181818" points="805,27,809,37,813,27,809,31" style="stroke:#181818;stroke-width:1.0;"/><line style="stroke:#181818;stroke-width:1.0;" x1="94" x2="94" y1="248.3906" y2="437.8125"/><line style="stroke:#181818;stroke-width:1.0;" x1="94" x2="519.5" y1="437.8125" y2="437.8125"/><polygon fill="#181818" points="509.5,433.8125,519.5,437.8125,509.5,441.8125,513.5,437.8125" style="stroke:#181818;stroke-width:1.0;"/><line style="stroke:#181818;stroke-width:1.0;" x1="191" x2="191" y1="248.3906" y2="437.8125"/><line style="stroke:#181818;stroke-width:1.0;" x1="191" x2="519.5" y1="437.8125" y2="437.8125"/><polygon fill="#181818" points="509.5,433.8125,519.5,437.8125,509.5,441.8125,513.5,437.8125" style="stroke:#181818;stroke-width:1.0;"/><line style="stroke:#181818;stroke-width:1.0;" x1="288" x2="288" y1="248.3906" y2="437.8125"/><line style="stroke:#181818;stroke-width:1.0;" x1="288" x2="519.5" y1="437.8125" y2="437.8125"/><polygon fill="#181818" points="509.5,433.8125,519.5,437.8125,509.5,441.8125,513.5,437.8125" style="stroke:#181818;stroke-width:1.0;"/><line style="stroke:#181818;stroke-width:1.0;" x1="809" x2="809" y1="415.8125" y2="437.8125"/><line style="stroke:#181818;stroke-width:1.0;" x1="809" x2="543.5" y1="437.8125" y2="437.8125"/><polygon fill="#181818" points="553.5,433.8125,543.5,437.8125,553.5,441.8125,549.5,437.8125" style="stroke:#181818;stroke-width:1.0;"/><line style="stroke:#181818;stroke-width:1.0;" x1="531.5" x2="531.5" y1="449.8125" y2="469.8125"/><polygon fill="#181818" points="527.5,459.8125,531.5,469.8125,535.5,459.8125,531.5,463.8125" style="stroke:#181818;stroke-width:1.0;"/><line style="stroke:#181818;stroke-width:1.0;" x1="531.5" x2="531.5" y1="503.7813" y2="523.7813"/><polygon fill="#181818" points="527.5,513.7813,531.5,523.7813,535.5,513.7813,531.5,517.7813" style="stroke:#181818;stroke-width:1.0;"/><!--MD5=[45fd5a63cce4da131c393fbc88355a20]
@startuml
fork
  :Process with article;
fork again
  :...;
fork again
  :Process with article;
  note right
    Same steps >>>
  end note
fork again
  :Inspect article's folder;
  fork
    :Write .pandoc file with additional metadata;
    :Render .pandoc content into HTML;
    :Embed HTML content into theme's template;
    :Article's HTML page;
  fork again
    :Find .plantuml diagrams;
    :Render diagrams into .svg;
  end merge
  :Put into article's renderred folder;
end merge
  :Generate index;
  :Create index page;
@enduml

PlantUML version 1.2022.3(Tue Mar 29 16:10:57 GMT 2022)
(GPL source distribution)
Java Runtime: OpenJDK Runtime Environment
JVM: OpenJDK 64-Bit Server VM
Default Encoding: UTF-8
Language: en
Country: US
--></g></svg>